<?xml version="1.0" standalone="no"?>
<!DOCTYPE svg PUBLIC "-//W3C//DTD SVG 20010904//EN"
 "http://www.w3.org/TR/2001/REC-SVG-20010904/DTD/svg10.dtd">
<svg version="1.0" xmlns="http://www.w3.org/2000/svg"
 width="30.000000px" height="30.000000px" viewBox="0 0 256.000000 256.000000"
 preserveAspectRatio="xMidYMid meet">

<g transform="translate(0.000000,256.000000) scale(0.100000,-0.100000)"
fill="#000000" stroke="none">
<path d="M1185 2283 c-188 -25 -220 -54 -220 -195 0 -52 -4 -88 -10 -88 -5 0
-102 -11 -215 -25 -185 -22 -207 -27 -224 -47 -14 -17 -17 -34 -13 -71 2 -26
6 -50 9 -53 3 -3 346 36 761 86 416 49 763 90 771 90 19 0 21 28 5 83 -17 62
-32 64 -257 38 -108 -12 -207 -25 -218 -28 -20 -4 -22 1 -29 54 -8 66 -34 119
-73 148 -35 26 -137 29 -287 8z m242 -95 c11 -13 23 -40 25 -60 4 -36 2 -38
-27 -43 -84 -14 -359 -44 -366 -39 -5 3 -9 24 -9 48 0 68 23 82 160 99 171 21
193 21 217 -5z"/>
<path d="M640 1032 l0 -667 24 -36 c48 -71 31 -69 639 -69 l544 0 33 23 c19
12 43 38 54 57 21 34 21 50 24 698 l3 662 -661 0 -660 0 0 -668z m268 496 c17
-17 17 -1079 0 -1096 -15 -15 -51 -15 -66 0 -17 17 -17 1079 0 1096 7 7 21 12
33 12 12 0 26 -5 33 -12z m280 0 c17 -17 17 -1079 0 -1096 -15 -15 -51 -15
-66 0 -9 9 -12 145 -12 550 0 501 1 538 18 547 23 14 45 14 60 -1z m280 0 c17
-17 17 -1079 0 -1096 -15 -15 -51 -15 -66 0 -9 9 -12 144 -12 544 0 471 2 534
16 548 18 19 45 21 62 4z m280 0 c17 -17 17 -1079 0 -1096 -18 -18 -56 -14
-68 7 -6 13 -10 202 -10 545 0 464 2 526 16 540 18 19 45 21 62 4z"/>
</g>
</svg>
