<?xml version="1.0" standalone="no"?>
<!DOCTYPE svg PUBLIC "-//W3C//DTD SVG 20010904//EN"
 "http://www.w3.org/TR/2001/REC-SVG-20010904/DTD/svg10.dtd">
<svg version="1.0" xmlns="http://www.w3.org/2000/svg"
 width="30.000000pt" height="30.000000pt" viewBox="0 0 840.000000 859.000000"
 preserveAspectRatio="xMidYMid meet">

<g transform="translate(0.000000,859.000000) scale(0.100000,-0.100000)"
fill="#000000" stroke="none">
<path d="M1240 7560 c0 -6 -31 -10 -74 -10 -41 0 -78 -4 -81 -10 -3 -5 -24
-10 -46 -10 -21 0 -39 -4 -39 -10 0 -5 -16 -10 -35 -10 -19 0 -35 -4 -35 -10
0 -5 -9 -10 -20 -10 -11 0 -23 -7 -26 -15 -4 -9 -19 -15 -35 -15 -16 0 -29 -4
-29 -10 0 -5 -11 -10 -25 -10 -14 0 -25 -4 -25 -10 0 -5 -7 -10 -16 -10 -9 0
-27 -11 -40 -25 -13 -14 -29 -25 -36 -25 -8 0 -20 -9 -28 -20 -8 -11 -23 -20
-33 -20 -18 0 -47 -22 -47 -35 0 -12 -50 -55 -64 -55 -20 0 -136 -116 -136
-136 0 -15 -23 -44 -35 -44 -13 0 -55 -50 -55 -65 0 -19 -23 -45 -39 -45 -6 0
-11 -11 -11 -25 0 -14 -4 -25 -10 -25 -5 0 -10 -9 -10 -20 0 -11 -4 -20 -10
-20 -5 0 -10 -11 -10 -25 0 -14 -4 -25 -10 -25 -5 0 -10 -7 -10 -16 0 -8 -7
-22 -15 -31 -8 -8 -13 -19 -9 -24 3 -5 -2 -12 -10 -15 -10 -4 -16 -18 -16 -35
0 -16 -4 -29 -10 -29 -5 0 -10 -16 -10 -35 0 -19 -4 -35 -10 -35 -5 0 -10 -25
-10 -55 0 -30 -4 -55 -10 -55 -7 0 -10 -740 -10 -2200 0 -1460 3 -2200 10
-2200 6 0 10 -20 10 -45 0 -25 5 -45 10 -45 6 0 10 -20 10 -45 0 -25 5 -45 10
-45 6 0 10 -11 10 -25 0 -16 6 -25 16 -25 10 0 14 -6 11 -14 -3 -7 1 -26 9
-41 8 -15 14 -34 14 -41 0 -8 5 -14 10 -14 6 0 10 -9 10 -20 0 -11 5 -20 10
-20 6 0 10 -7 10 -15 0 -8 5 -15 10 -15 6 0 10 -9 10 -20 0 -11 7 -20 15 -20
9 0 15 -9 15 -21 0 -12 14 -34 30 -49 17 -15 30 -33 30 -39 0 -13 217 -231
230 -231 6 0 24 -14 42 -30 17 -17 39 -30 49 -30 11 0 19 -5 19 -11 0 -17 27
-39 49 -39 12 0 21 -4 21 -10 0 -5 9 -10 20 -10 11 0 20 -4 20 -10 0 -5 9 -10
20 -10 11 0 23 -7 26 -15 4 -8 15 -15 25 -15 10 0 19 -4 19 -10 0 -5 11 -10
25 -10 14 0 25 -4 25 -10 0 -5 14 -10 30 -10 17 0 30 -4 30 -10 0 -5 20 -10
45 -10 25 0 45 -4 45 -10 0 -5 25 -10 55 -10 42 0 55 -3 55 -15 0 -13 247 -15
2160 -15 1913 0 2160 2 2160 15 0 12 13 15 55 15 30 0 55 5 55 10 0 6 20 10
45 10 25 0 45 5 45 10 0 6 16 10 35 10 19 0 35 5 35 10 0 6 7 10 16 10 8 0 22
7 30 15 9 8 25 15 38 15 12 0 28 9 36 20 8 11 25 20 37 20 13 0 23 5 23 10 0
6 8 10 18 10 9 0 26 11 36 25 10 14 26 25 35 25 9 0 23 9 31 20 8 11 23 20 33
20 18 0 47 22 47 35 0 8 47 55 55 55 8 0 35 27 35 35 0 10 69 75 80 75 5 0 10
7 10 15 0 8 5 15 10 15 6 0 10 7 10 15 0 18 43 65 60 65 5 0 10 10 10 23 0 12
9 29 20 37 11 8 20 25 20 37 0 13 5 23 10 23 6 0 10 9 10 20 0 11 7 20 15 20
9 0 15 9 15 25 0 14 5 25 10 25 6 0 10 14 10 30 0 17 5 30 10 30 6 0 10 11 10
25 0 14 5 25 10 25 6 0 10 18 10 40 0 27 5 43 15 46 10 4 15 20 15 50 0 24 5
44 10 44 6 0 10 40 10 100 0 60 4 100 10 100 7 0 10 170 10 490 0 320 -3 490
-10 490 -5 0 -10 14 -10 30 0 17 -4 30 -10 30 -5 0 -10 7 -10 15 0 8 -7 15
-15 15 -8 0 -15 5 -15 10 0 6 -9 10 -20 10 -11 0 -20 5 -20 10 0 6 -25 10 -55
10 -30 0 -55 -4 -55 -10 0 -5 -7 -10 -15 -10 -8 0 -98 -83 -200 -185 l-185
-185 0 -385 c0 -250 -4 -385 -10 -385 -5 0 -10 -20 -10 -45 0 -25 -4 -45 -10
-45 -5 0 -10 -14 -10 -30 0 -18 -6 -33 -15 -36 -8 -4 -15 -15 -15 -25 0 -10
-4 -19 -10 -19 -5 0 -10 -11 -10 -25 0 -14 -4 -25 -10 -25 -5 0 -10 -7 -10
-16 0 -23 -206 -224 -230 -224 -11 0 -20 -5 -20 -11 0 -17 -27 -39 -49 -39
-12 0 -21 -4 -21 -10 0 -5 -13 -10 -30 -10 -16 0 -30 -4 -30 -10 0 -5 -16 -10
-35 -10 -24 0 -35 -5 -35 -15 0 -12 -14 -15 -65 -15 -37 0 -65 -4 -65 -10 0
-7 -668 -10 -1985 -10 -1317 0 -1985 3 -1985 10 0 6 -28 10 -65 10 -49 0 -67
4 -71 15 -4 9 -19 15 -35 15 -16 0 -29 5 -29 10 0 6 -16 10 -35 10 -19 0 -35
5 -35 10 0 6 -8 10 -17 10 -22 1 -53 23 -53 39 0 6 -9 11 -20 11 -11 0 -20 5
-20 10 0 6 -5 10 -10 10 -11 0 -80 65 -80 75 0 8 -27 35 -35 35 -13 0 -55 50
-55 65 0 19 -23 45 -39 45 -6 0 -11 11 -11 25 0 14 -4 25 -10 25 -5 0 -10 9
-10 20 0 11 -4 20 -10 20 -5 0 -10 16 -10 35 0 19 -4 35 -10 35 -5 0 -10 25
-10 55 0 42 -3 55 -15 55 -13 0 -15 233 -15 2035 0 1800 2 2036 15 2041 11 5
15 21 15 60 0 30 5 54 10 54 6 0 10 9 10 20 0 11 5 20 10 20 6 0 10 15 10 33
0 23 7 38 25 51 14 10 25 26 25 35 0 9 9 23 20 31 11 8 20 21 20 30 1 17 23
50 35 50 4 0 20 15 36 33 17 17 39 42 50 55 12 12 29 22 38 22 9 0 23 9 31 20
8 11 25 20 37 20 14 0 23 6 23 15 0 8 9 15 20 15 11 0 20 5 20 10 0 6 16 10
35 10 19 0 35 5 35 10 0 6 16 10 35 10 19 0 35 5 35 10 0 7 705 10 2095 10
1390 0 2095 -3 2095 -10 0 -6 35 -10 85 -10 50 0 85 4 85 10 0 6 7 10 16 10
17 0 254 234 254 251 0 5 9 19 20 31 15 17 20 36 20 79 0 32 -4 61 -10 64 -5
3 -10 13 -10 21 0 20 -24 44 -44 44 -8 0 -18 5 -21 10 -3 6 -15 10 -26 10 -10
0 -19 7 -19 15 0 10 -11 15 -35 15 -19 0 -35 5 -35 10 0 6 -13 10 -30 10 -16
0 -30 5 -30 10 0 6 -16 10 -35 10 -19 0 -35 5 -35 10 0 6 -33 10 -80 10 -47 0
-80 4 -80 10 0 7 -703 10 -2090 10 -1387 0 -2090 -3 -2090 -10z"/>
<path d="M7080 7520 c0 -5 -13 -10 -30 -10 -16 0 -30 -4 -30 -10 0 -5 -11 -10
-25 -10 -14 0 -25 -5 -25 -11 0 -16 -26 -39 -44 -39 -9 0 -16 -4 -16 -10 0 -5
-5 -10 -11 -10 -11 0 -39 -25 -39 -35 0 -8 -47 -55 -55 -55 -8 0 -35 -27 -35
-35 0 -8 -47 -55 -55 -55 -8 0 -35 -27 -35 -35 0 -8 -47 -55 -55 -55 -9 0 -35
-27 -35 -35 0 -8 -45 -51 -83 -80 -15 -11 -27 -25 -27 -32 0 -7 -4 -13 -10
-13 -26 0 -3 -36 70 -110 44 -44 85 -80 90 -80 6 0 10 -4 10 -9 0 -12 269
-281 281 -281 5 0 9 -6 9 -12 0 -7 17 -26 37 -43 19 -16 43 -38 52 -49 49 -56
70 -76 80 -76 6 0 11 -4 11 -8 0 -13 67 -82 79 -82 6 0 11 -4 11 -8 0 -10 65
-82 75 -82 8 0 35 -27 35 -35 0 -10 72 -75 82 -75 4 0 8 -6 8 -12 0 -7 17 -26
37 -43 19 -16 43 -38 52 -49 49 -56 70 -76 80 -76 6 0 11 -4 11 -8 0 -10 65
-82 75 -82 8 0 35 -26 35 -35 0 -8 47 -55 55 -55 8 0 35 -27 35 -35 0 -4 7
-13 15 -21 13 -14 17 -14 30 0 8 8 15 17 15 21 0 8 47 55 55 55 8 0 35 27 35
35 0 8 47 55 55 55 8 0 35 27 35 35 0 9 48 55 57 55 5 0 17 12 28 26 31 41 52
64 59 64 10 0 56 47 56 57 0 5 12 17 26 28 52 39 64 53 64 74 0 11 5 21 10 21
6 0 10 9 10 20 0 11 5 20 10 20 6 0 10 20 10 45 0 33 4 45 15 45 12 0 15 17
15 90 0 73 -3 90 -15 90 -11 0 -15 12 -15 45 0 25 -4 45 -10 45 -5 0 -10 9
-10 20 0 11 -4 20 -10 20 -5 0 -10 9 -10 20 0 11 -4 20 -10 20 -5 0 -10 7 -10
15 0 8 -4 15 -8 15 -10 0 -82 65 -82 75 0 8 -26 35 -35 35 -8 0 -55 47 -55 55
0 8 -27 35 -35 35 -8 0 -55 47 -55 55 0 8 -27 35 -35 35 -8 0 -55 47 -55 55 0
8 -27 35 -35 35 -10 0 -75 69 -75 80 0 5 -5 10 -10 10 -11 0 -80 65 -80 75 0
8 -27 35 -35 35 -8 0 -55 47 -55 55 0 8 -27 35 -35 35 -8 0 -55 47 -55 55 0 9
-27 35 -37 35 -5 0 -15 9 -23 20 -8 11 -22 20 -31 20 -9 0 -19 7 -23 15 -3 8
-15 15 -26 15 -11 0 -20 5 -20 10 0 6 -9 10 -20 10 -11 0 -20 5 -20 10 0 6
-52 10 -135 10 -83 0 -135 -4 -135 -10z"/>
<path d="M6125 6653 c-11 -15 -29 -36 -41 -47 -11 -12 -32 -30 -47 -41 -15
-11 -27 -23 -27 -28 0 -9 -46 -57 -55 -57 -4 0 -13 -6 -21 -14 -8 -8 -14 -17
-14 -21 0 -3 -11 -17 -25 -30 -13 -14 -27 -25 -30 -25 -4 0 -13 -6 -21 -14 -8
-8 -14 -17 -14 -21 0 -9 -48 -55 -57 -55 -5 0 -17 -12 -28 -26 -33 -44 -52
-64 -61 -64 -5 0 -18 -12 -29 -26 -31 -41 -52 -64 -59 -64 -10 0 -56 -47 -56
-57 0 -5 -12 -17 -26 -28 -41 -31 -64 -52 -64 -59 0 -9 -47 -56 -55 -56 -4 0
-13 -6 -21 -14 -8 -8 -14 -17 -14 -21 0 -3 -11 -17 -25 -30 -13 -14 -27 -25
-30 -25 -4 0 -13 -6 -21 -14 -8 -8 -14 -17 -14 -21 0 -8 -47 -55 -55 -55 -8 0
-55 -47 -55 -55 0 -8 -27 -35 -35 -35 -9 0 -55 -48 -55 -57 0 -5 -12 -17 -26
-28 -44 -33 -64 -52 -64 -61 0 -5 -12 -18 -27 -29 -34 -25 -63 -54 -88 -88
-11 -15 -24 -27 -30 -27 -6 0 -19 -12 -30 -26 -31 -41 -52 -64 -59 -64 -9 0
-56 -47 -56 -55 0 -8 -27 -35 -35 -35 -9 0 -55 -48 -55 -57 0 -5 -12 -17 -26
-28 -41 -31 -64 -52 -64 -59 0 -10 -47 -56 -57 -56 -5 0 -17 -12 -28 -26 -31
-41 -52 -64 -59 -64 -9 0 -56 -47 -56 -55 0 -4 -6 -13 -14 -21 -8 -8 -17 -14
-21 -14 -8 0 -55 -47 -55 -55 0 -8 -27 -35 -35 -35 -8 0 -55 -47 -55 -55 0 -4
-6 -13 -14 -21 -8 -8 -17 -14 -21 -14 -9 0 -55 -48 -55 -57 0 -5 -12 -17 -27
-28 -34 -25 -63 -54 -88 -88 -11 -15 -23 -27 -28 -27 -9 0 -57 -46 -57 -55 0
-4 -6 -13 -14 -21 -8 -8 -17 -14 -21 -14 -3 0 -17 -11 -30 -25 -14 -13 -25
-27 -25 -30 0 -4 -6 -13 -14 -21 -8 -8 -17 -14 -21 -14 -3 0 -17 -11 -30 -25
-14 -13 -25 -27 -25 -30 0 -9 -27 -35 -37 -35 -4 0 -21 -17 -38 -37 -16 -19
-38 -43 -49 -52 -34 -30 -61 -57 -81 -84 -11 -15 -23 -27 -28 -27 -9 0 -57
-46 -57 -55 0 -8 -27 -35 -35 -35 -3 0 -17 -11 -30 -25 -14 -13 -25 -27 -25
-30 0 -9 -27 -35 -35 -35 -10 0 -75 -72 -75 -82 0 -4 -5 -8 -11 -8 -12 0 -79
-69 -79 -80 0 -4 -11 -13 -25 -20 l-25 -13 0 -689 0 -688 678 0 c666 0 678 0
692 20 8 11 20 20 27 20 7 0 13 5 13 10 0 14 66 80 80 80 5 0 10 5 10 10 0 11
65 80 75 80 8 0 35 27 35 35 0 8 47 55 55 55 8 0 35 27 35 35 0 8 47 55 55 55
8 0 35 27 35 35 0 10 69 75 80 75 5 0 10 5 10 10 0 14 66 80 80 80 5 0 10 5
10 10 0 11 65 80 75 80 8 0 35 27 35 35 0 8 47 55 55 55 8 0 35 27 35 35 0 8
47 55 55 55 8 0 35 27 35 35 0 10 69 75 80 75 5 0 10 5 10 10 0 14 66 80 80
80 5 0 10 5 10 10 0 11 65 80 75 80 8 0 35 27 35 35 0 8 47 55 55 55 8 0 35
27 35 35 0 8 47 55 55 55 8 0 35 27 35 35 0 10 69 75 80 75 5 0 10 5 10 10 0
11 65 80 75 80 8 0 35 27 35 35 0 8 47 55 55 55 8 0 35 27 35 35 0 8 47 55 55
55 8 0 35 27 35 35 0 8 47 55 55 55 8 0 35 27 35 35 0 8 47 55 55 55 8 0 35
27 35 35 0 8 67 75 75 75 8 0 35 27 35 35 0 8 47 55 55 55 8 0 35 27 35 35 0
8 47 55 55 55 8 0 35 27 35 35 0 8 47 55 55 55 8 0 35 27 35 35 0 8 47 55 55
55 8 0 35 27 35 35 0 8 67 75 75 75 8 0 35 27 35 35 0 8 47 55 55 55 8 0 35
27 35 35 0 8 47 55 55 55 8 0 35 27 35 35 0 8 47 55 55 55 8 0 35 27 35 35 0
8 47 55 55 55 9 0 55 48 55 57 0 5 12 17 26 28 41 31 64 52 64 59 0 9 47 56
55 56 8 0 35 27 35 35 0 10 48 55 60 55 5 0 10 5 10 10 0 6 -5 10 -10 10 -6 0
-26 16 -45 35 -19 19 -35 39 -35 45 0 5 -5 10 -10 10 -6 0 -26 16 -45 35 -19
19 -35 39 -35 45 0 5 -5 10 -10 10 -11 0 -80 65 -80 75 0 8 -27 35 -35 35 -3
0 -17 11 -30 25 -14 13 -25 27 -25 30 0 8 -27 35 -35 35 -10 0 -75 69 -75 80
0 5 -5 10 -10 10 -6 0 -26 16 -45 35 -19 19 -35 39 -35 45 0 5 -5 10 -10 10
-6 0 -26 16 -45 35 -19 19 -35 39 -35 45 0 5 -5 10 -10 10 -11 0 -80 65 -80
75 0 8 -27 35 -35 35 -3 0 -17 11 -30 25 -14 13 -25 27 -25 30 0 8 -27 35 -35
35 -10 0 -75 69 -75 80 0 5 -5 10 -10 10 -6 0 -26 16 -45 35 -19 19 -35 39
-35 45 0 5 -5 10 -10 10 -6 0 -26 16 -45 35 -19 19 -35 39 -35 45 0 5 -5 10
-10 10 -11 0 -80 65 -80 75 0 8 -27 35 -35 35 -10 0 -75 69 -75 80 0 5 -7 10
-15 10 -8 0 -15 5 -15 10 0 20 -36 9 -55 -17z m95 -663 c8 -11 20 -20 27 -20
8 0 13 -14 13 -40 0 -40 -4 -45 -845 -885 -554 -554 -852 -845 -865 -845 -11
0 -20 -7 -20 -15 0 -23 -7 -19 -66 39 -58 59 -62 66 -39 66 8 0 15 9 15 20 0
21 61 90 80 90 5 0 10 5 10 10 0 6 16 26 35 45 19 19 39 35 45 35 5 0 10 5 10
10 0 6 16 26 35 45 19 19 39 35 45 35 5 0 10 5 10 10 0 11 65 80 75 80 8 0 35
27 35 35 0 10 69 75 80 75 5 0 10 5 10 10 0 6 16 26 35 45 19 19 39 35 45 35
5 0 10 5 10 10 0 6 16 26 35 45 19 19 39 35 45 35 5 0 10 5 10 10 0 14 66 80
80 80 5 0 10 5 10 10 0 11 65 80 75 80 4 0 13 6 21 14 8 8 14 17 14 21 0 10
69 75 80 75 5 0 10 5 10 10 0 6 16 26 35 45 19 19 39 35 45 35 5 0 10 5 10 10
0 6 16 26 35 45 19 19 39 35 45 35 5 0 10 5 10 10 0 11 65 80 75 80 8 0 35 27
35 35 0 3 11 17 25 30 13 14 27 25 30 25 8 0 35 27 35 35 0 10 69 75 80 75 5
0 10 5 10 10 0 6 16 26 35 45 19 19 39 35 45 35 5 0 10 5 10 10 0 6 16 26 35
45 19 19 39 35 45 35 5 0 10 5 10 10 0 6 16 26 35 45 19 19 39 35 45 35 5 0
10 5 10 10 0 6 19 10 43 10 31 0 46 -5 57 -20z m-2180 -2130 c0 -12 45 -60 56
-60 7 0 28 -23 59 -64 11 -14 23 -26 28 -26 9 0 57 -46 57 -55 0 -8 27 -35 35
-35 3 0 17 -11 30 -25 14 -13 25 -27 25 -30 0 -8 27 -35 35 -35 8 0 55 -47 55
-55 0 -4 6 -13 14 -21 8 -8 17 -14 21 -14 3 0 17 -11 30 -25 14 -13 25 -27 25
-30 0 -8 27 -35 35 -35 3 0 21 -16 40 -35 19 -19 35 -37 35 -40 0 -8 27 -35
35 -35 3 0 17 -11 30 -25 25 -24 32 -45 17 -45 -5 0 -15 -11 -22 -25 -7 -14
-17 -25 -21 -25 -5 0 -114 -106 -243 -235 l-234 -236 -119 3 -118 3 -3 223 -2
222 -220 0 -220 0 0 123 c0 111 2 124 20 137 11 8 20 18 20 23 0 10 26 37 35
37 3 0 17 11 30 25 14 13 25 27 25 30 0 9 27 35 35 35 10 0 75 72 75 82 0 4 5
8 11 8 12 0 79 69 79 82 0 4 5 8 10 8 6 0 26 16 45 35 19 19 35 39 35 45 0 5
4 10 8 10 13 0 82 67 82 79 0 6 7 11 15 11 8 0 15 -5 15 -10z"/>
</g>
</svg>
