<?xml version="1.0" standalone="no"?>
<!DOCTYPE svg PUBLIC "-//W3C//DTD SVG 20010904//EN"
 "http://www.w3.org/TR/2001/REC-SVG-20010904/DTD/svg10.dtd">
<svg version="1.0" xmlns="http://www.w3.org/2000/svg"
 width="512.000000pt" height="512.000000pt" viewBox="0 0 512.000000 512.000000"
 preserveAspectRatio="xMidYMid meet">

<g transform="translate(0.000000,512.000000) scale(0.100000,-0.100000)"
fill="#000000" stroke="none">
<path d="M2002 4724 c-115 -31 -282 -90 -386 -138 -107 -49 -306 -168 -306
-183 0 -6 18 -125 39 -264 l40 -251 -78 -78 -78 -79 -249 40 c-137 21 -256 39
-264 39 -17 0 -132 -189 -186 -306 -70 -152 -164 -443 -164 -508 0 -17 48 -56
210 -175 l210 -153 0 -112 0 -112 -210 -153 c-162 -118 -210 -158 -210 -174 0
-36 56 -237 95 -343 54 -144 179 -389 232 -452 l18 -22 260 40 259 41 78 -78
77 -78 -40 -255 c-21 -140 -37 -260 -35 -266 6 -15 145 -99 253 -153 161 -80
416 -169 538 -186 l40 -6 149 206 c82 113 152 208 156 210 3 2 55 5 116 6
l109 2 153 -209 153 -209 38 2 c88 4 383 104 541 183 78 39 248 139 255 150 2
4 -13 124 -36 266 l-40 258 79 79 79 79 229 -36 c126 -20 243 -39 260 -42 30
-5 33 -2 78 68 66 101 168 313 211 437 35 103 85 286 85 313 0 8 -96 84 -212
170 l-213 155 3 112 3 111 210 152 210 153 -6 40 c-18 123 -106 377 -186 538
-54 108 -138 247 -153 253 -6 2 -126 -14 -266 -36 l-255 -40 -78 79 -79 78 37
234 c19 129 38 246 41 261 5 25 -1 32 -64 73 -95 61 -286 155 -406 200 -106
39 -307 95 -343 95 -16 0 -56 -48 -174 -210 l-153 -210 -112 0 -112 0 -153
210 c-174 239 -149 223 -297 184z m721 -1219 c372 -65 666 -337 769 -714 31
-110 31 -352 0 -462 -98 -357 -362 -617 -718 -706 -105 -26 -334 -24 -441 4
-241 64 -448 211 -577 410 -201 311 -206 711 -14 1023 206 335 597 512 981
445z"/>
</g>
</svg>
