<?xml version="1.0" standalone="no"?>
<!DOCTYPE svg PUBLIC "-//W3C//DTD SVG 20010904//EN"
 "http://www.w3.org/TR/2001/REC-SVG-20010904/DTD/svg10.dtd">
<svg version="1.0" xmlns="http://www.w3.org/2000/svg"
 width="30.000000pt" height="30.000000pt" viewBox="0 0 272.000000 185.000000"
 preserveAspectRatio="xMidYMid meet">

<g transform="translate(0.000000,185.000000) scale(0.100000,-0.100000)"
fill="#000000" stroke="none">
<path d="M1950 1657 c-24 -12 -69 -69 -335 -427 -265 -358 -364 -491 -368
-493 -2 -1 -50 38 -105 88 -117 103 -144 119 -180 110 -59 -14 -98 -87 -73
-133 13 -24 286 -274 318 -290 27 -15 78 -15 104 -1 11 5 79 90 151 187 73 97
197 265 277 372 369 497 345 462 345 504 1 30 -6 44 -32 67 -35 31 -63 36
-102 16z"/>
<path d="M723 1494 c-17 -9 -39 -24 -48 -34 -42 -47 -44 -71 -44 -615 -1 -484
1 -523 18 -560 22 -48 44 -69 94 -90 31 -13 111 -15 559 -15 486 0 526 2 563
19 49 22 73 48 91 98 17 48 20 703 4 734 -13 24 -68 26 -77 4 -3 -9 -6 -174
-7 -366 l-1 -351 -28 -24 -28 -24 -520 0 -521 0 -29 29 -30 30 3 526 3 527 24
19 c22 18 44 19 416 19 367 0 393 1 408 18 20 22 22 43 5 60 -9 9 -115 12
-418 12 -347 0 -410 -3 -437 -16z"/>
</g>
</svg>
